<svg width="20" height="12" viewBox="0 0 20 12" fill="none" xmlns="http://www.w3.org/2000/svg">
<path fill-rule="evenodd" clip-rule="evenodd" d="M10 0C7.33333 0 5.66667 1.33333 5 4C6 2.66667 7.16667 2.16667 8.5 2.5C9.26074 2.69 9.80444 3.24222 10.4063 3.85296C11.3867 4.84815 12.5215 6 15 6C17.6667 6 19.3333 4.66667 20 2C19 3.33333 17.8333 3.83333 16.5 3.5C15.7393 3.31 15.1956 2.75778 14.5937 2.14704C13.6133 1.15185 12.4785 0 10 0ZM5 6C2.33333 6 0.666667 7.33333 0 10C1 8.66667 2.16667 8.16667 3.5 8.5C4.26074 8.69037 4.80444 9.24222 5.4063 9.85296C6.38667 10.8481 7.52148 12 10 12C12.6667 12 14.3333 10.6667 15 8C14 9.33333 12.8333 9.83333 11.5 9.5C10.7393 9.31 10.1956 8.75778 9.5937 8.14704C8.61333 7.15185 7.47852 6 5 6Z" fill="#4A4A4A"/>
</svg>
