<svg width="32" height="32" viewBox="0 0 32 32" fill="none" xmlns="http://www.w3.org/2000/svg">
<g clip-path="url(#clip0_1128_7916)">
<path d="M30.48 12.19V10.67H28.95V9.13998H27.43V6.09998H25.91V18.29H27.43V16.76H28.95V15.24H30.48V28.95H32V12.19H30.48Z" fill="#000001"/>
<path d="M30.48 28.95H28.95V30.4799H30.48V28.95Z" fill="#000001"/>
<path d="M28.95 30.48H3.05V32H28.95V30.48Z" fill="#000001"/>
<path d="M25.91 18.29H24.38V19.81H25.91V18.29Z" fill="#000001"/>
<path d="M24.38 25.91H22.86V27.43H24.38V25.91Z" fill="#000001"/>
<path d="M24.38 19.8101H22.86V21.3301H24.38V19.8101Z" fill="#000001"/>
<path d="M22.86 24.38H21.33V25.91H22.86V24.38Z" fill="#000001"/>
<path d="M22.86 21.33H21.33V22.86H22.86V21.33Z" fill="#000001"/>
<path d="M22.86 10.67H21.33V15.24H22.86V10.67Z" fill="#000001"/>
<path d="M21.33 9.14001H19.81V10.67H21.33V9.14001Z" fill="#000001"/>
<path d="M21.33 22.86H10.67V24.38H21.33V22.86Z" fill="#000001"/>
<path d="M21.33 15.24H18.29V16.76H21.33V15.24Z" fill="#000001"/>
<path d="M18.29 10.67H13.72V12.19H16.76V15.24H18.29V10.67Z" fill="#000001"/>
<path d="M16.76 15.24H13.72V16.76H16.76V15.24Z" fill="#000001"/>
<path d="M19.81 7.62H12.19V9.14H19.81V7.62Z" fill="#000001"/>
<path d="M19.81 18.29H12.19V19.81H19.81V18.29Z" fill="#000001"/>
<path d="M13.72 12.1899H12.19V15.2399H13.72V12.1899Z" fill="#000001"/>
<path d="M12.19 16.76H10.67V18.29H12.19V16.76Z" fill="#000001"/>
<path d="M12.19 9.14001H10.67V10.67H12.19V9.14001Z" fill="#000001"/>
<path d="M10.67 24.38H9.14V25.91H10.67V24.38Z" fill="#000001"/>
<path d="M10.67 21.33H9.14V22.86H10.67V21.33Z" fill="#000001"/>
<path d="M10.67 10.67H9.14V16.76H10.67V10.67Z" fill="#000001"/>
<path d="M9.14 25.91H7.62V27.43H9.14V25.91Z" fill="#000001"/>
<path d="M9.14 19.8101H7.62V21.3301H9.14V19.8101Z" fill="#000001"/>
<path d="M25.91 6.1V4.57H22.86V3.05H21.33V1.52H19.81V0H12.19V1.52H10.67V3.05H9.14V4.57H6.1V6.1H25.91Z" fill="#000001"/>
<path d="M7.62 18.29H6.1V19.81H7.62V18.29Z" fill="#000001"/>
<path d="M3.05 28.95H1.52V30.4799H3.05V28.95Z" fill="#000001"/>
<path d="M1.52 15.24H3.05V16.76H4.57V18.29H6.1V6.09998H4.57V9.13998H3.05V10.67H1.52V12.19H0V28.95H1.52V15.24Z" fill="#000001"/>
</g>
<defs>
<clipPath id="clip0_1128_7916">
<rect width="32" height="32" fill="white"/>
</clipPath>
</defs>
</svg>
