<svg width="32" height="32" viewBox="0 0 32 32" fill="none" xmlns="http://www.w3.org/2000/svg">
<g clip-path="url(#clip0_1128_5250)">
<path d="M30.48 0H21.33V1.53H19.81V10.67H1.52V12.19H19.81V16.77H21.33V22.86H1.52V12.19H0V25.91H1.52V24.39H21.33V25.91H22.86V18.29H30.48V16.77H32V1.53H30.48V0ZM24.38 1.53H27.43V3.05H24.38V1.53ZM30.48 15.24H21.33V3.05H22.86V4.58H28.95V3.05H30.48V15.24Z" fill="#000001"/>
<path d="M28.95 9.15002H27.43V10.67H28.95V9.15002Z" fill="#000001"/>
<path d="M28.95 6.09998H27.43V7.61998H28.95V6.09998Z" fill="#000001"/>
<path d="M27.43 10.67H24.38V12.19H27.43V10.67Z" fill="#000001"/>
<path d="M24.38 9.15002H22.86V10.67H24.38V9.15002Z" fill="#000001"/>
<path d="M24.38 6.09998H22.86V7.61998H24.38V6.09998Z" fill="#000001"/>
<path d="M1.52 25.91V27.43H7.62V28.96H9.14V27.43H13.71V28.96H15.24V27.43H21.33V25.91H1.52Z" fill="#000001"/>
<path d="M19.81 16.77H18.29V18.29H19.81V16.77Z" fill="#000001"/>
<path d="M18.29 18.29H16.76V19.81H18.29V18.29Z" fill="#000001"/>
<path d="M18.29 15.24H16.76V16.77H18.29V15.24Z" fill="#000001"/>
<path d="M16.76 19.8101H15.24V21.3401H16.76V19.8101Z" fill="#000001"/>
<path d="M16.76 13.72H15.24V15.24H16.76V13.72Z" fill="#000001"/>
<path d="M7.62 30.48V28.96H6.1V32H16.76V28.96H15.24V30.48H7.62Z" fill="#000001"/>
<path d="M13.71 13.72H12.19V16.77H13.71V13.72Z" fill="#000001"/>
<path d="M12.19 16.77H10.67V18.29H12.19V16.77Z" fill="#000001"/>
<path d="M10.67 18.29H9.14V21.34H10.67V18.29Z" fill="#000001"/>
<path d="M7.62 19.8101H6.1V21.3401H7.62V19.8101Z" fill="#000001"/>
<path d="M7.62 13.72H6.1V15.24H7.62V13.72Z" fill="#000001"/>
<path d="M6.1 18.29H4.57V19.81H6.1V18.29Z" fill="#000001"/>
<path d="M6.1 15.24H4.57V16.77H6.1V15.24Z" fill="#000001"/>
<path d="M4.57 16.77H3.05V18.29H4.57V16.77Z" fill="#000001"/>
</g>
<defs>
<clipPath id="clip0_1128_5250">
<rect width="32" height="32" fill="white"/>
</clipPath>
</defs>
</svg>
